<svg width="348" height="316" viewBox="0 0 348 316" fill="none" xmlns="http://www.w3.org/2000/svg">
<path d="M181.636 18.3636V30H180.273L173.932 20.8636H173.818V30H172.409V18.3636H173.773L180.136 27.5227H180.25V18.3636H181.636Z" fill="white"/>
<path d="M35.5227 163L32.3409 151.364H33.7727L36.2045 160.841H36.3182L38.7955 151.364H40.3864L42.8636 160.841H42.9773L45.4091 151.364H46.8409L43.6591 163H42.2045L39.6364 153.727H39.5455L36.9773 163H35.5227Z" fill="white"/>
<path d="M303.409 163V151.364H310.432V152.614H304.818V156.545H310.068V157.795H304.818V161.75H310.523V163H303.409Z" fill="white"/>
<path d="M178.773 292.273C178.705 291.697 178.428 291.25 177.943 290.932C177.458 290.614 176.864 290.455 176.159 290.455C175.644 290.455 175.193 290.538 174.807 290.705C174.424 290.871 174.125 291.1 173.909 291.392C173.697 291.684 173.591 292.015 173.591 292.386C173.591 292.697 173.665 292.964 173.812 293.188C173.964 293.407 174.157 293.591 174.392 293.739C174.627 293.883 174.873 294.002 175.131 294.097C175.388 294.187 175.625 294.261 175.841 294.318L177.023 294.636C177.326 294.716 177.663 294.826 178.034 294.966C178.409 295.106 178.767 295.297 179.108 295.54C179.453 295.778 179.737 296.085 179.96 296.46C180.184 296.835 180.295 297.295 180.295 297.841C180.295 298.47 180.131 299.038 179.801 299.545C179.475 300.053 178.998 300.456 178.369 300.756C177.744 301.055 176.985 301.205 176.091 301.205C175.258 301.205 174.536 301.07 173.926 300.801C173.32 300.532 172.843 300.157 172.494 299.676C172.15 299.195 171.955 298.636 171.909 298H173.364C173.402 298.439 173.549 298.803 173.807 299.091C174.068 299.375 174.398 299.587 174.795 299.727C175.197 299.864 175.629 299.932 176.091 299.932C176.629 299.932 177.112 299.845 177.54 299.67C177.968 299.492 178.307 299.246 178.557 298.932C178.807 298.614 178.932 298.242 178.932 297.818C178.932 297.432 178.824 297.117 178.608 296.875C178.392 296.633 178.108 296.436 177.756 296.284C177.403 296.133 177.023 296 176.614 295.886L175.182 295.477C174.273 295.216 173.553 294.843 173.023 294.358C172.492 293.873 172.227 293.239 172.227 292.455C172.227 291.803 172.403 291.235 172.756 290.75C173.112 290.261 173.589 289.883 174.188 289.614C174.79 289.341 175.462 289.205 176.205 289.205C176.955 289.205 177.621 289.339 178.205 289.608C178.788 289.873 179.25 290.237 179.591 290.699C179.936 291.161 180.117 291.686 180.136 292.273H178.773Z" fill="white"/>
<path fill-rule="evenodd" clip-rule="evenodd" d="M54 158C54 224.274 107.726 278 174 278H178V277.935C242.423 275.825 294 222.936 294 158V154H293.935C291.868 90.9053 241.095 40.1319 178 38.0654V38H174C109.064 38 56.1754 89.5773 54.0654 154H54V158ZM283.929 154C281.871 96.4289 235.571 50.1292 178 48.0714V68H174V48C114.588 48 66.1766 95.1014 64.0714 154H84V158H64C64 218.751 113.249 268 174 268V248H178V267.929C236.898 265.823 284 217.412 284 158H264V154H283.929Z" fill="#F8A402"/>
</svg>
